<svg width="522" height="366" viewBox="0 0 522 366" fill="none" xmlns="http://www.w3.org/2000/svg">
<path d="M371.211 125.465C372.703 123.968 372.703 121.54 371.211 120.043C369.72 118.546 367.301 118.546 365.809 120.043C364.317 121.54 364.317 123.968 365.809 125.465C367.301 126.962 369.72 126.962 371.211 125.465Z" fill="#0093C0"/>
<path d="M413.172 129.65C413.404 128.215 412.433 126.864 411.004 126.631C409.575 126.398 408.228 127.372 407.996 128.807C407.764 130.241 408.734 131.593 410.164 131.826C411.593 132.059 412.94 131.084 413.172 129.65Z" fill="#0093C0"/>
<path d="M436.428 168.009C437.577 168.009 438.508 167.074 438.508 165.921C438.508 164.769 437.577 163.834 436.428 163.834C435.28 163.834 434.349 164.769 434.349 165.921C434.349 167.074 435.28 168.009 436.428 168.009Z" fill="#0093C0"/>
<path d="M389.705 169.755C391.815 169.755 393.525 168.039 393.525 165.922C393.525 163.804 391.815 162.088 389.705 162.088C387.595 162.088 385.885 163.804 385.885 165.922C385.885 168.039 387.595 169.755 389.705 169.755Z" fill="#0093C0"/>
<path d="M425.442 194.869C426.891 194.869 428.065 193.691 428.065 192.237C428.065 190.784 426.891 189.606 425.442 189.606C423.994 189.606 422.82 190.784 422.82 192.237C422.82 193.691 423.994 194.869 425.442 194.869Z" fill="#0093C0"/>
<path d="M424.9 234.84C426.048 234.84 426.979 233.906 426.979 232.753C426.979 231.6 426.048 230.666 424.9 230.666C423.751 230.666 422.82 231.6 422.82 232.753C422.82 233.906 423.751 234.84 424.9 234.84Z" fill="#0093C0"/>
<path d="M386.794 224.169C388.286 222.672 388.286 220.244 386.794 218.747C385.302 217.25 382.884 217.25 381.392 218.747C379.9 220.244 379.9 222.672 381.392 224.169C382.884 225.666 385.302 225.666 386.794 224.169Z" fill="#0093C0"/>
<path d="M318.162 93.9192C319.61 93.9192 320.784 92.741 320.784 91.2877C320.784 89.8344 319.61 88.6562 318.162 88.6562C316.714 88.6562 315.54 89.8344 315.54 91.2877C315.54 92.741 316.714 93.9192 318.162 93.9192Z" fill="#0093C0"/>
<path d="M331.026 129.555C331.21 128.418 330.44 127.346 329.306 127.161C328.172 126.976 327.104 127.749 326.92 128.887C326.736 130.024 327.506 131.096 328.64 131.281C329.773 131.466 330.842 130.693 331.026 129.555Z" fill="#0093C0"/>
<path d="M353.986 193.163C354.471 191.103 353.2 189.038 351.147 188.551C349.093 188.065 347.036 189.341 346.551 191.401C346.066 193.462 347.337 195.527 349.391 196.013C351.444 196.5 353.502 195.224 353.986 193.163Z" fill="#0093C0"/>
<path d="M300.808 201.134C302.146 200.578 302.782 199.039 302.228 197.696C301.673 196.353 300.139 195.716 298.802 196.272C297.464 196.828 296.828 198.367 297.382 199.71C297.937 201.053 299.471 201.69 300.808 201.134Z" fill="#0093C0"/>
<path d="M345.424 157.529C346.573 157.529 347.504 156.595 347.504 155.442C347.504 154.289 346.573 153.355 345.424 153.355C344.276 153.355 343.345 154.289 343.345 155.442C343.345 156.595 344.276 157.529 345.424 157.529Z" fill="#0093C0"/>
<path d="M256.716 55.7413C257.054 53.6513 255.64 51.682 253.557 51.3428C251.474 51.0036 249.512 52.4229 249.174 54.513C248.836 56.603 250.25 58.5723 252.333 58.9115C254.416 59.2508 256.378 57.8314 256.716 55.7413Z" fill="#0093C0"/>
<path d="M230.71 25.2966C232.158 25.2966 233.332 24.1185 233.332 22.6652C233.332 21.2118 232.158 20.0337 230.71 20.0337C229.261 20.0337 228.087 21.2118 228.087 22.6652C228.087 24.1185 229.261 25.2966 230.71 25.2966Z" fill="#0093C0"/>
<path d="M134.82 68.399C135.969 68.399 136.9 67.4646 136.9 66.312C136.9 65.1595 135.969 64.2251 134.82 64.2251C133.672 64.2251 132.741 65.1595 132.741 66.312C132.741 67.4646 133.672 68.399 134.82 68.399Z" fill="#0093C0"/>
<path d="M195.614 69.3098C196.099 67.2492 194.828 65.1844 192.774 64.6978C190.721 64.2113 188.663 65.4873 188.179 67.5478C187.694 69.6084 188.965 71.6732 191.019 72.1598C193.072 72.6464 195.129 71.3704 195.614 69.3098Z" fill="#0093C0"/>
<path d="M276.99 152.21C277.474 150.149 276.203 148.084 274.15 147.598C272.096 147.111 270.039 148.387 269.554 150.448C269.069 152.508 270.341 154.573 272.394 155.06C274.447 155.546 276.505 154.27 276.99 152.21Z" fill="#0093C0"/>
<path d="M222.657 130.14C223.142 128.079 221.871 126.014 219.818 125.528C217.764 125.041 215.707 126.317 215.222 128.378C214.737 130.438 216.009 132.503 218.062 132.99C220.115 133.476 222.173 132.2 222.657 130.14Z" fill="#0093C0"/>
<path d="M156.273 105.647C157.722 105.647 158.896 104.469 158.896 103.015C158.896 101.562 157.722 100.384 156.273 100.384C154.825 100.384 153.651 101.562 153.651 103.015C153.651 104.469 154.825 105.647 156.273 105.647Z" fill="#0093C0"/>
<path d="M282.27 96.4136C282.603 94.9992 281.731 93.5819 280.321 93.2479C278.912 92.9139 277.5 93.7898 277.167 95.2041C276.834 96.6185 277.707 98.0359 279.116 98.3699C280.525 98.7038 281.938 97.828 282.27 96.4136Z" fill="#0093C0"/>
<path d="M230.708 88.678C231.856 88.678 232.787 87.7436 232.787 86.5909C232.787 85.4383 231.856 84.5039 230.708 84.5039C229.559 84.5039 228.628 85.4383 228.628 86.5909C228.628 87.7436 229.559 88.678 230.708 88.678Z" fill="#0093C0"/>
<path d="M101.909 189.422C104.019 189.422 105.729 187.706 105.729 185.589C105.729 183.471 104.019 181.755 101.909 181.755C99.7992 181.755 98.0889 183.471 98.0889 185.589C98.0889 187.706 99.7992 189.422 101.909 189.422Z" fill="#0093C0"/>
<path d="M110.959 127.1C111.191 125.665 110.22 124.314 108.791 124.081C107.361 123.848 106.014 124.822 105.782 126.257C105.55 127.691 106.521 129.043 107.95 129.276C109.38 129.509 110.727 128.535 110.959 127.1Z" fill="#0093C0"/>
<path d="M41.7578 142.964C43.2059 142.964 44.3799 141.786 44.3799 140.333C44.3799 138.879 43.2059 137.701 41.7578 137.701C40.3097 137.701 39.1357 138.879 39.1357 140.333C39.1357 141.786 40.3097 142.964 41.7578 142.964Z" fill="#0093C0"/>
<path d="M59.5164 161.201C60.5775 160.76 61.0814 159.539 60.6418 158.474C60.2023 157.409 58.9858 156.904 57.9247 157.345C56.8636 157.786 56.3597 159.007 56.7993 160.072C57.2388 161.137 58.4553 161.642 59.5164 161.201Z" fill="#0093C0"/>
<path d="M34.0391 208.136C35.531 206.638 35.531 204.211 34.0391 202.714C32.5473 201.217 30.1286 201.217 28.6368 202.714C27.1449 204.211 27.1449 206.638 28.6367 208.136C30.1286 209.633 32.5473 209.633 34.0391 208.136Z" fill="#0093C0"/>
<path d="M67.1986 223.173C67.4306 221.738 66.4598 220.387 65.0304 220.154C63.6009 219.921 62.2541 220.895 62.0221 222.33C61.7901 223.764 62.7608 225.116 64.1903 225.349C65.6197 225.582 66.9666 224.607 67.1986 223.173Z" fill="#0093C0"/>
<path d="M50.118 250.067C51.4559 249.511 52.0912 247.971 51.537 246.629C50.9828 245.286 49.4489 244.648 48.111 245.204C46.7731 245.761 46.1378 247.3 46.692 248.643C47.2462 249.985 48.78 250.623 50.118 250.067Z" fill="#0093C0"/>
<path d="M153.652 155.465C154.801 155.465 155.732 154.531 155.732 153.378C155.732 152.225 154.801 151.291 153.652 151.291C152.504 151.291 151.573 152.225 151.573 153.378C151.573 154.531 152.504 155.465 153.652 155.465Z" fill="#0093C0"/>
<path d="M127.428 245.74C128.92 244.243 128.92 241.815 127.428 240.318C125.936 238.821 123.518 238.821 122.026 240.318C120.534 241.815 120.534 244.243 122.026 245.74C123.518 247.237 125.936 247.237 127.428 245.74Z" fill="#0093C0"/>
<path d="M232.788 181.757C234.236 181.757 235.41 180.579 235.41 179.126C235.41 177.672 234.236 176.494 232.788 176.494C231.34 176.494 230.166 177.672 230.166 179.126C230.166 180.579 231.34 181.757 232.788 181.757Z" fill="#0093C0"/>
<path d="M188.055 224.835C189.203 224.835 190.134 223.901 190.134 222.748C190.134 221.596 189.203 220.661 188.055 220.661C186.906 220.661 185.975 221.596 185.975 222.748C185.975 223.901 186.906 224.835 188.055 224.835Z" fill="#0093C0"/>
<path d="M158.97 204.301C160.461 202.804 160.461 200.376 158.97 198.879C157.478 197.382 155.059 197.382 153.567 198.879C152.076 200.376 152.076 202.804 153.567 204.301C155.059 205.798 157.478 205.798 158.97 204.301Z" fill="#0093C0"/>
<path d="M363.325 264.31C365.435 264.31 367.146 262.593 367.146 260.476C367.146 258.359 365.435 256.642 363.325 256.642C361.216 256.642 359.505 258.359 359.505 260.476C359.505 262.593 361.216 264.31 363.325 264.31Z" fill="#0093C0"/>
<path d="M263.957 238.014C265.405 238.014 266.579 236.836 266.579 235.383C266.579 233.93 265.405 232.751 263.957 232.751C262.508 232.751 261.334 233.93 261.334 235.383C261.334 236.836 262.508 238.014 263.957 238.014Z" fill="#0093C0"/>
<path d="M324.808 246.864C325.957 246.864 326.888 245.929 326.888 244.777C326.888 243.624 325.957 242.69 324.808 242.69C323.66 242.69 322.729 243.624 322.729 244.777C322.729 245.929 323.66 246.864 324.808 246.864Z" fill="#0093C0"/>
<path d="M171.024 241.929C172.516 240.432 172.516 238.005 171.024 236.507C169.532 235.01 167.113 235.01 165.622 236.507C164.13 238.005 164.13 240.432 165.622 241.929C167.113 243.426 169.532 243.426 171.024 241.929Z" fill="#0093C0"/>
<path d="M146.98 260.473C148.429 260.473 149.603 259.295 149.603 257.842C149.603 256.389 148.429 255.21 146.98 255.21C145.532 255.21 144.358 256.389 144.358 257.842C144.358 259.295 145.532 260.473 146.98 260.473Z" fill="#0093C0"/>
<path d="M197.956 250.696C199.105 250.696 200.036 249.762 200.036 248.609C200.036 247.456 199.105 246.522 197.956 246.522C196.808 246.522 195.876 247.456 195.876 248.609C195.876 249.762 196.808 250.696 197.956 250.696Z" fill="#0093C0"/>
<path d="M355.686 100.818C357.796 100.818 359.506 99.1015 359.506 96.9842C359.506 94.8668 357.796 93.1504 355.686 93.1504C353.576 93.1504 351.866 94.8668 351.866 96.9842C351.866 99.1015 353.576 100.818 355.686 100.818Z" fill="#0093C0"/>
<path d="M297.165 259.817C298.614 259.817 299.788 258.639 299.788 257.186C299.788 255.732 298.614 254.554 297.165 254.554C295.717 254.554 294.543 255.732 294.543 257.186C294.543 258.639 295.717 259.817 297.165 259.817Z" fill="#0093C0"/>
<path d="M261.88 268.616C263.028 268.616 263.959 267.682 263.959 266.529C263.959 265.377 263.028 264.442 261.88 264.442C260.731 264.442 259.8 265.377 259.8 266.529C259.8 267.682 260.731 268.616 261.88 268.616Z" fill="#0093C0"/>
<path d="M229.092 249.23C229.43 247.14 228.015 245.17 225.933 244.831C223.85 244.492 221.888 245.911 221.55 248.001C221.212 250.091 222.626 252.061 224.709 252.4C226.791 252.739 228.754 251.32 229.092 249.23Z" fill="#0093C0"/>
<path d="M320.942 64.3252C321.275 62.9109 320.402 61.4935 318.993 61.1595C317.583 60.8255 316.171 61.7014 315.838 63.1158C315.506 64.5302 316.378 65.9475 317.788 66.2815C319.197 66.6155 320.609 65.7396 320.942 64.3252Z" fill="#0093C0"/>
<path d="M294.544 63.1379C295.693 63.1379 296.624 62.2035 296.624 61.0509C296.624 59.8983 295.693 58.9639 294.544 58.9639C293.396 58.9639 292.465 59.8983 292.465 61.0509C292.465 62.2035 293.396 63.1379 294.544 63.1379Z" fill="#0093C0"/>
<path d="M419.702 260.563C421.194 259.066 421.194 256.638 419.702 255.141C418.21 253.644 415.792 253.644 414.3 255.141C412.808 256.638 412.808 259.066 414.3 260.563C415.791 262.06 418.21 262.06 419.702 260.563Z" fill="#0093C0"/>
<path d="M343.817 81.0334C345.266 81.0334 346.44 79.8553 346.44 78.402C346.44 76.9487 345.266 75.7705 343.817 75.7705C342.369 75.7705 341.195 76.9487 341.195 78.402C341.195 79.8553 342.369 81.0334 343.817 81.0334Z" fill="#0093C0"/>
<path d="M181.136 28.9041C182.285 28.9041 183.216 27.9697 183.216 26.817C183.216 25.6644 182.285 24.73 181.136 24.73C179.988 24.73 179.057 25.6644 179.057 26.817C179.057 27.9697 179.988 28.9041 181.136 28.9041Z" fill="#0093C0"/>
<path d="M448.587 198.703C450.697 198.703 452.407 196.986 452.407 194.869C452.407 192.752 450.697 191.035 448.587 191.035C446.477 191.035 444.767 192.752 444.767 194.869C444.767 196.986 446.477 198.703 448.587 198.703Z" fill="#0093C0"/>
<path d="M381.479 278.421C382.928 278.421 384.102 277.242 384.102 275.789C384.102 274.336 382.928 273.158 381.479 273.158C380.031 273.158 378.857 274.336 378.857 275.789C378.857 277.242 380.031 278.421 381.479 278.421Z" fill="#0093C0"/>
<path d="M444.735 225.339C444.999 224.217 444.307 223.093 443.19 222.828C442.072 222.563 440.952 223.258 440.688 224.379C440.424 225.501 441.116 226.625 442.234 226.89C443.352 227.155 444.472 226.461 444.735 225.339Z" fill="#0093C0"/>
<path d="M344.967 280.234C345.305 278.144 343.89 276.174 341.808 275.835C339.726 275.496 337.763 276.915 337.425 279.006C337.087 281.096 338.502 283.065 340.584 283.404C342.667 283.743 344.629 282.324 344.967 280.234Z" fill="#0093C0"/>
<path d="M401.503 110.91C402.951 110.91 404.125 109.732 404.125 108.278C404.125 106.825 402.951 105.647 401.503 105.647C400.055 105.647 398.881 106.825 398.881 108.278C398.881 109.732 400.055 110.91 401.503 110.91Z" fill="#0093C0"/>
<path d="M438.507 140.468C438.691 139.331 437.921 138.259 436.787 138.074C435.653 137.889 434.585 138.662 434.401 139.8C434.217 140.938 434.987 142.01 436.121 142.194C437.255 142.379 438.323 141.606 438.507 140.468Z" fill="#0093C0"/>
<path d="M212.654 5.01287C212.992 2.92284 211.577 0.953596 209.495 0.614399C207.412 0.275202 205.45 1.6945 205.112 3.78452C204.774 5.87455 206.188 7.84382 208.271 8.18302C210.353 8.52221 212.316 7.10289 212.654 5.01287Z" fill="#0093C0"/>
<path d="M67.2886 139.017C68.7804 137.519 68.7804 135.092 67.2886 133.595C65.7968 132.098 63.378 132.098 61.8862 133.595C60.3944 135.092 60.3944 137.519 61.8862 139.017C63.378 140.514 65.7968 140.514 67.2886 139.017Z" fill="#0093C0"/>
<path d="M105.644 264.562C106.129 262.501 104.857 260.436 102.804 259.95C100.75 259.463 98.6928 260.739 98.208 262.8C97.7231 264.86 98.9946 266.925 101.048 267.412C103.101 267.898 105.159 266.622 105.644 264.562Z" fill="#0093C0"/>
<path d="M25.4627 239.218C27.5725 239.218 29.2828 237.502 29.2828 235.385C29.2828 233.267 27.5725 231.551 25.4627 231.551C23.3529 231.551 21.6426 233.267 21.6426 235.385C21.6426 237.502 23.3529 239.218 25.4627 239.218Z" fill="#0093C0"/>
<path d="M118.548 100.818C120.657 100.818 122.368 99.1015 122.368 96.9842C122.368 94.8668 120.657 93.1504 118.548 93.1504C116.438 93.1504 114.728 94.8668 114.728 96.9842C114.728 99.1015 116.438 100.818 118.548 100.818Z" fill="#0093C0"/>
<path d="M8.10358 195.946C9.59541 194.449 9.5954 192.022 8.10357 190.524C6.61174 189.027 4.19302 189.027 2.70119 190.524C1.20937 192.022 1.20937 194.449 2.70119 195.946C4.19302 197.443 6.61175 197.443 8.10358 195.946Z" fill="#0093C0"/>
<path d="M143.505 38.1094C143.838 36.695 142.965 35.2777 141.555 34.9437C140.146 34.6097 138.734 35.4856 138.401 36.9C138.068 38.3144 138.941 39.7317 140.35 40.0657C141.76 40.3996 143.172 39.5238 143.505 38.1094Z" fill="#0093C0"/>
<path d="M87.7573 108.281C89.2054 108.281 90.3794 107.103 90.3794 105.65C90.3794 104.196 89.2054 103.018 87.7573 103.018C86.3092 103.018 85.1353 104.196 85.1353 105.65C85.1353 107.103 86.3092 108.281 87.7573 108.281Z" fill="#0093C0"/>
<path d="M263.575 24.7546C264.724 24.7546 265.655 23.8202 265.655 22.6676C265.655 21.515 264.724 20.5806 263.575 20.5806C262.427 20.5806 261.496 21.515 261.496 22.6676C261.496 23.8202 262.427 24.7546 263.575 24.7546Z" fill="#0093C0"/>
<path d="M19.5629 157.529C20.7113 157.529 21.6424 156.595 21.6424 155.442C21.6424 154.289 20.7113 153.355 19.5629 153.355C18.4144 153.355 17.4834 154.289 17.4834 155.442C17.4834 156.595 18.4144 157.529 19.5629 157.529Z" fill="#0093C0"/>
<path d="M77.9187 249.563C78.9798 249.122 79.4837 247.901 79.0442 246.836C78.6047 245.771 77.3882 245.266 76.3271 245.707C75.266 246.148 74.7621 247.369 75.2016 248.434C75.6411 249.498 76.8577 250.004 77.9187 249.563Z" fill="#0093C0"/>
<path d="M128.866 266.045C129.05 264.907 128.28 263.835 127.147 263.651C126.013 263.466 124.945 264.239 124.761 265.376C124.577 266.514 125.347 267.586 126.48 267.771C127.614 267.956 128.682 267.183 128.866 266.045Z" fill="#0093C0"/>
<path d="M208.81 4.29065L181.066 26.7178L181.222 26.9121L208.966 4.48499L208.81 4.29065Z" fill="#0093C0"/>
<path d="M140.82 37.4646L134.708 66.3096L134.952 66.3615L141.064 37.5165L140.82 37.4646Z" fill="#0093C0"/>
<path d="M230.685 22.5375L181.107 26.6851L181.128 26.9337L230.705 22.7861L230.685 22.5375Z" fill="#0093C0"/>
<path d="M181.109 26.697L140.912 37.3311L140.975 37.5724L181.172 26.9383L181.109 26.697Z" fill="#0093C0"/>
<path d="M263.578 22.5312H230.712V22.7808H263.578V22.5312Z" fill="#0093C0"/>
<path d="M208.952 4.31659L208.792 4.5083L230.623 22.7609L230.782 22.5692L208.952 4.31659Z" fill="#0093C0"/>
<path d="M134.728 66.2604L118.435 96.9272L118.654 97.0447L134.948 66.3778L134.728 66.2604Z" fill="#0093C0"/>
<path d="M181.049 26.7415L134.75 66.2305L134.911 66.4206L181.21 26.9316L181.049 26.7415Z" fill="#0093C0"/>
<path d="M230.812 22.6121L230.607 22.7534L252.842 55.2303L253.047 55.089L230.812 22.6121Z" fill="#0093C0"/>
<path d="M263.482 22.5926L252.83 55.0664L253.066 55.1444L263.718 22.6707L263.482 22.5926Z" fill="#0093C0"/>
<path d="M252.946 55.0327L252.912 55.2798L294.517 61.1922L294.552 60.9451L252.946 55.0327Z" fill="#0093C0"/>
<path d="M181.272 26.7791L181.032 26.8418L191.776 68.4106L192.017 68.3479L181.272 26.7791Z" fill="#0093C0"/>
<path d="M134.827 66.1964L134.818 66.4458L191.877 68.528L191.886 68.2786L134.827 66.1964Z" fill="#0093C0"/>
<path d="M252.922 55.0052L191.856 68.2603L191.909 68.5041L252.975 55.249L252.922 55.0052Z" fill="#0093C0"/>
<path d="M134.93 66.2375L134.716 66.3638L156.169 103.074L156.383 102.948L134.93 66.2375Z" fill="#0093C0"/>
<path d="M191.789 68.2955L156.208 102.936L156.381 103.115L191.962 68.4746L191.789 68.2955Z" fill="#0093C0"/>
<path d="M118.585 96.8449L118.545 97.0913L156.291 103.145L156.33 102.898L118.585 96.8449Z" fill="#0093C0"/>
<path d="M208.821 4.27155L140.896 37.3521L141.004 37.5766L208.929 4.49606L208.821 4.27155Z" fill="#0093C0"/>
<path d="M140.814 37.4403L118.408 96.9404L118.641 97.0286L141.046 37.5285L140.814 37.4403Z" fill="#0093C0"/>
<path d="M208.895 4.27933L208.817 4.51611L263.534 22.774L263.612 22.5372L208.895 4.27933Z" fill="#0093C0"/>
<path d="M263.657 22.5662L263.464 22.7231L294.426 61.1058L294.619 60.9488L263.657 22.5662Z" fill="#0093C0"/>
<path d="M118.407 96.9194L108.223 126.629L108.458 126.711L118.642 97.0006L118.407 96.9194Z" fill="#0093C0"/>
<path d="M156.195 102.918L108.287 126.564L108.397 126.788L156.304 103.142L156.195 102.918Z" fill="#0093C0"/>
<path d="M118.48 96.8594L64.5474 136.216L64.6936 136.418L118.626 97.0612L118.48 96.8594Z" fill="#0093C0"/>
<path d="M87.6605 105.582L64.5034 136.216L64.7015 136.367L87.8585 105.732L87.6605 105.582Z" fill="#0093C0"/>
<path d="M118.486 96.8477L87.6943 105.527L87.7616 105.768L118.553 97.0879L118.486 96.8477Z" fill="#0093C0"/>
<path d="M108.32 126.523L64.5581 136.145L64.6113 136.389L108.374 126.767L108.32 126.523Z" fill="#0093C0"/>
<path d="M19.4568 155.409L5.27344 193.074L5.50602 193.162L19.6894 155.497L19.4568 155.409Z" fill="#0093C0"/>
<path d="M64.5311 136.192L19.4995 155.357L19.5966 155.587L64.6282 136.422L64.5311 136.192Z" fill="#0093C0"/>
<path d="M19.5817 155.331L19.5576 155.58L58.704 159.41L58.7281 159.161L19.5817 155.331Z" fill="#0093C0"/>
<path d="M64.499 136.27L58.5903 159.247L58.8311 159.309L64.7397 136.333L64.499 136.27Z" fill="#0093C0"/>
<path d="M5.46506 192.996L5.35889 193.222L31.2986 205.514L31.4048 205.288L5.46506 192.996Z" fill="#0093C0"/>
<path d="M19.6765 155.433L19.4346 155.491L31.2256 205.468L31.4675 205.411L19.6765 155.433Z" fill="#0093C0"/>
<path d="M5.52479 193.063L5.30029 193.17L25.3426 235.426L25.5671 235.318L5.52479 193.063Z" fill="#0093C0"/>
<path d="M31.2259 205.371L25.3477 235.331L25.5917 235.379L31.4699 205.419L31.2259 205.371Z" fill="#0093C0"/>
<path d="M58.5918 159.213L31.2192 205.349L31.4329 205.476L58.8054 159.341L58.5918 159.213Z" fill="#0093C0"/>
<path d="M64.5569 222.64L25.4219 235.3L25.4982 235.538L64.6331 222.878L64.5569 222.64Z" fill="#0093C0"/>
<path d="M31.3983 205.307L31.2837 205.529L64.5252 222.85L64.6398 222.629L31.3983 205.307Z" fill="#0093C0"/>
<path d="M64.6442 222.642L64.5649 222.878L124.703 243.179L124.782 242.942L64.6442 222.642Z" fill="#0093C0"/>
<path d="M25.5035 235.252L25.4463 235.495L77.0985 247.752L77.1558 247.509L25.5035 235.252Z" fill="#0093C0"/>
<path d="M64.7083 222.688L64.4863 222.8L76.9988 247.691L77.2208 247.579L64.7083 222.688Z" fill="#0093C0"/>
<path d="M124.706 242.908L77.0952 247.501L77.119 247.75L124.73 243.156L124.706 242.908Z" fill="#0093C0"/>
<path d="M146.976 257.697L101.91 263.488L101.941 263.736L147.008 257.945L146.976 257.697Z" fill="#0093C0"/>
<path d="M124.657 242.949L101.828 263.543L101.994 263.729L124.823 243.134L124.657 242.949Z" fill="#0093C0"/>
<path d="M168.313 239.076L124.717 242.894L124.739 243.143L168.334 239.325L168.313 239.076Z" fill="#0093C0"/>
<path d="M77.1818 247.522L77.0474 247.732L101.861 263.739L101.996 263.529L77.1818 247.522Z" fill="#0093C0"/>
<path d="M102.445 185.466L31.3145 205.3L31.381 205.541L102.512 185.707L102.445 185.466Z" fill="#0093C0"/>
<path d="M102.395 185.487L64.5171 222.667L64.6909 222.845L102.569 185.665L102.395 185.487Z" fill="#0093C0"/>
<path d="M156.254 201.492L64.5649 222.65L64.6207 222.893L156.31 201.735L156.254 201.492Z" fill="#0093C0"/>
<path d="M102.527 185.452L102.456 185.691L156.248 201.693L156.319 201.453L102.527 185.452Z" fill="#0093C0"/>
<path d="M156.197 201.501L124.643 242.942L124.841 243.094L156.395 201.653L156.197 201.501Z" fill="#0093C0"/>
<path d="M156.41 201.533L156.173 201.609L168.219 239.235L168.455 239.158L156.41 201.533Z" fill="#0093C0"/>
<path d="M108.269 126.55L58.6411 159.188L58.7774 159.397L108.406 126.759L108.269 126.55Z" fill="#0093C0"/>
<path d="M58.7698 159.183L58.6421 159.397L102.416 185.699L102.543 185.485L58.7698 159.183Z" fill="#0093C0"/>
<path d="M108.237 126.673L102.358 185.585L102.605 185.61L108.484 126.698L108.237 126.673Z" fill="#0093C0"/>
<path d="M108.427 126.568L108.301 126.783L153.599 153.481L153.725 153.266L108.427 126.568Z" fill="#0093C0"/>
<path d="M153.782 153.361L153.534 153.375L156.151 201.599L156.399 201.585L153.782 153.361Z" fill="#0093C0"/>
<path d="M153.597 153.299L102.416 185.486L102.548 185.697L153.729 153.511L153.597 153.299Z" fill="#0093C0"/>
<path d="M156.159 103.035L153.514 153.371L153.762 153.384L156.408 103.048L156.159 103.035Z" fill="#0093C0"/>
<path d="M191.922 68.2734L191.816 68.4995L230.649 86.6931L230.754 86.467L191.922 68.2734Z" fill="#0093C0"/>
<path d="M252.846 55.074L230.597 86.5161L230.799 86.6606L253.049 55.2184L252.846 55.074Z" fill="#0093C0"/>
<path d="M230.586 86.5783L218.835 129.213L219.075 129.279L230.826 86.6448L230.586 86.5783Z" fill="#0093C0"/>
<path d="M230.657 86.4472L156.242 102.881L156.295 103.125L230.71 86.6909L230.657 86.4472Z" fill="#0093C0"/>
<path d="M156.316 102.88L156.221 103.111L218.881 129.311L218.977 129.081L156.316 102.88Z" fill="#0093C0"/>
<path d="M218.876 129.102L153.6 153.262L153.686 153.496L218.962 129.336L218.876 129.102Z" fill="#0093C0"/>
<path d="M232.745 178.958L156.262 201.475L156.332 201.715L232.815 179.198L232.745 178.958Z" fill="#0093C0"/>
<path d="M153.69 153.261L153.613 153.498L232.738 179.252L232.814 179.015L153.69 153.261Z" fill="#0093C0"/>
<path d="M219.04 129.173L218.801 129.24L232.647 179.129L232.886 179.062L219.04 129.173Z" fill="#0093C0"/>
<path d="M156.359 201.472L156.221 201.68L188.002 222.832L188.139 222.624L156.359 201.472Z" fill="#0093C0"/>
<path d="M232.704 179.045L188.001 222.687L188.174 222.866L232.877 179.223L232.704 179.045Z" fill="#0093C0"/>
<path d="M187.975 222.638L168.229 239.111L168.388 239.303L188.134 222.83L187.975 222.638Z" fill="#0093C0"/>
<path d="M188.15 222.633L188.008 222.838L225.258 248.71L225.399 248.505L188.15 222.633Z" fill="#0093C0"/>
<path d="M168.338 239.062L168.297 239.309L225.289 248.71L225.329 248.464L168.338 239.062Z" fill="#0093C0"/>
<path d="M232.868 179.073L232.65 179.194L263.828 235.456L264.045 235.335L232.868 179.073Z" fill="#0093C0"/>
<path d="M188.104 222.629L188.063 222.875L263.947 235.512L263.988 235.266L188.104 222.629Z" fill="#0093C0"/>
<path d="M263.937 235.245L225.281 248.486L225.361 248.722L264.017 235.482L263.937 235.245Z" fill="#0093C0"/>
<path d="M264.037 235.276L263.901 235.484L297.121 257.29L297.257 257.081L264.037 235.276Z" fill="#0093C0"/>
<path d="M263.836 235.377L261.771 266.523L262.019 266.54L264.084 235.393L263.836 235.377Z" fill="#0093C0"/>
<path d="M297.14 257.021L261.85 266.396L261.914 266.638L297.204 257.262L297.14 257.021Z" fill="#0093C0"/>
<path d="M225.391 248.512L225.282 248.736L261.864 266.663L261.973 266.439L225.391 248.512Z" fill="#0093C0"/>
<path d="M168.362 239.101L168.287 239.339L197.922 248.741L197.997 248.503L168.362 239.101Z" fill="#0093C0"/>
<path d="M225.306 248.476H197.955V248.726H225.306V248.476Z" fill="#0093C0"/>
<path d="M41.6921 140.249L19.5024 155.348L19.642 155.554L41.8316 140.456L41.6921 140.249Z" fill="#0093C0"/>
<path d="M64.5828 136.192L41.7432 140.24L41.7864 140.485L64.626 136.438L64.5828 136.192Z" fill="#0093C0"/>
<path d="M25.4954 235.28L25.3813 235.502L49.0399 247.763L49.154 247.541L25.4954 235.28Z" fill="#0093C0"/>
<path d="M77.1125 247.499H49.106V247.748H77.1125V247.499Z" fill="#0093C0"/>
<path d="M101.92 263.54L101.899 263.789L126.789 265.871L126.81 265.622L101.92 263.54Z" fill="#0093C0"/>
<path d="M146.937 257.71L126.776 265.58L126.866 265.812L147.027 257.943L146.937 257.71Z" fill="#0093C0"/>
<path d="M124.814 242.93L124.676 243.138L146.922 257.95L147.059 257.742L124.814 242.93Z" fill="#0093C0"/>
<path d="M168.268 239.124L146.921 257.773L147.084 257.961L168.431 239.312L168.268 239.124Z" fill="#0093C0"/>
<path d="M264.051 235.475L263.87 235.294L299.698 198.612L299.879 198.771L264.051 235.475Z" fill="#0093C0"/>
<path d="M273.192 151.19L232.726 179.05L232.866 179.256L273.333 151.396L273.192 151.19Z" fill="#0093C0"/>
<path d="M232.801 178.985L232.732 179.225L299.734 198.791L299.804 198.552L232.801 178.985Z" fill="#0093C0"/>
<path d="M273.28 151.14L273.266 151.389L345.438 155.553L345.452 155.304L273.28 151.14Z" fill="#0093C0"/>
<path d="M273.377 151.242L273.16 151.364L299.693 198.775L299.91 198.653L273.377 151.242Z" fill="#0093C0"/>
<path d="M345.518 155.437L345.272 155.469L350.098 192.24L350.345 192.208L345.518 155.437Z" fill="#0093C0"/>
<path d="M299.879 198.796L299.698 198.591L345.336 155.354L345.516 155.535L299.879 198.796Z" fill="#0093C0"/>
<path d="M345.463 155.302L345.406 155.545L389.698 166.016L389.755 165.773L345.463 155.302Z" fill="#0093C0"/>
<path d="M389.647 165.826L350.181 192.134L350.318 192.342L389.784 166.033L389.647 165.826Z" fill="#0093C0"/>
<path d="M350.219 192.062L299.772 198.539L299.804 198.787L350.251 192.309L350.219 192.062Z" fill="#0093C0"/>
<path d="M299.898 198.653L299.68 198.772L324.709 244.868L324.927 244.748L299.898 198.653Z" fill="#0093C0"/>
<path d="M350.137 192.203L324.696 244.741L324.919 244.85L350.361 192.312L350.137 192.203Z" fill="#0093C0"/>
<path d="M384.054 221.316L324.772 244.641L324.863 244.873L384.145 221.548L384.054 221.316Z" fill="#0093C0"/>
<path d="M263.969 235.217L263.932 235.464L324.791 244.863L324.829 244.616L263.969 235.217Z" fill="#0093C0"/>
<path d="M324.739 244.665L297.093 257.083L297.194 257.311L324.84 244.893L324.739 244.665Z" fill="#0093C0"/>
<path d="M324.883 244.635L324.789 244.867L363.303 260.569L363.397 260.338L324.883 244.635Z" fill="#0093C0"/>
<path d="M383.991 221.426L363.251 260.46L363.471 260.577L384.21 221.544L383.991 221.426Z" fill="#0093C0"/>
<path d="M363.271 260.391L341.12 279.527L341.282 279.716L363.434 260.581L363.271 260.391Z" fill="#0093C0"/>
<path d="M297.196 257.051L297.083 257.274L341.094 279.717L341.207 279.495L297.196 257.051Z" fill="#0093C0"/>
<path d="M297.18 257.035L297.168 257.284L363.319 260.588L363.332 260.339L297.18 257.035Z" fill="#0093C0"/>
<path d="M363.373 260.374L363.213 260.565L381.362 275.878L381.522 275.687L363.373 260.374Z" fill="#0093C0"/>
<path d="M381.472 275.676L341.188 279.484L341.212 279.732L381.496 275.924L381.472 275.676Z" fill="#0093C0"/>
<path d="M416.966 257.777L381.428 275.724L381.54 275.947L417.078 258L416.966 257.777Z" fill="#0093C0"/>
<path d="M417.017 257.724L363.33 260.36L363.342 260.609L417.029 257.974L417.017 257.724Z" fill="#0093C0"/>
<path d="M424.796 232.676L416.906 257.773L417.143 257.848L425.033 232.751L424.796 232.676Z" fill="#0093C0"/>
<path d="M384.155 221.389L383.971 221.557L416.892 257.954L417.076 257.786L384.155 221.389Z" fill="#0093C0"/>
<path d="M389.615 165.915L383.957 221.454L384.204 221.479L389.862 165.941L389.615 165.915Z" fill="#0093C0"/>
<path d="M350.315 192.147L350.153 192.336L383.993 221.556L384.155 221.367L350.315 192.147Z" fill="#0093C0"/>
<path d="M425.412 192.113L384.046 221.341L384.189 221.545L425.555 192.317L425.412 192.113Z" fill="#0093C0"/>
<path d="M384.156 221.374L384.09 221.615L424.903 232.909L424.97 232.668L384.156 221.374Z" fill="#0093C0"/>
<path d="M389.781 165.813L389.634 166.014L425.38 192.323L425.527 192.122L389.781 165.813Z" fill="#0093C0"/>
<path d="M425.486 192.136L425.458 192.384L448.592 195.015L448.62 194.767L425.486 192.136Z" fill="#0093C0"/>
<path d="M442.755 225.239L416.893 257.783L417.087 257.939L442.949 225.394L442.755 225.239Z" fill="#0093C0"/>
<path d="M442.788 225.152L424.83 232.621L424.925 232.851L442.883 225.383L442.788 225.152Z" fill="#0093C0"/>
<path d="M448.497 194.875L442.77 225.302L443.014 225.348L448.741 194.922L448.497 194.875Z" fill="#0093C0"/>
<path d="M425.324 192.244L424.774 232.756L425.023 232.759L425.573 192.247L425.324 192.244Z" fill="#0093C0"/>
<path d="M448.489 194.818L424.815 232.722L425.026 232.854L448.7 194.95L448.489 194.818Z" fill="#0093C0"/>
<path d="M436.33 165.823L425.331 192.141L425.56 192.237L436.56 165.919L436.33 165.823Z" fill="#0093C0"/>
<path d="M436.452 165.789H389.707V166.038H436.452V165.789Z" fill="#0093C0"/>
<path d="M436.567 165.846L436.337 165.943L448.488 194.875L448.717 194.778L436.567 165.846Z" fill="#0093C0"/>
<path d="M436.59 140.106L436.348 140.161L448.501 194.898L448.744 194.844L436.59 140.106Z" fill="#0093C0"/>
<path d="M410.632 129.079L410.536 129.309L436.399 140.212L436.496 139.982L410.632 129.079Z" fill="#0093C0"/>
<path d="M436.566 140.13H436.317V165.923H436.566V140.13Z" fill="#0093C0"/>
<path d="M410.462 129.149L389.586 165.854L389.802 165.978L410.677 129.273L410.462 129.149Z" fill="#0093C0"/>
<path d="M410.67 129.117L410.467 129.261L436.328 165.949L436.531 165.805L410.67 129.117Z" fill="#0093C0"/>
<path d="M355.814 96.9648L355.592 97.0762L368.419 122.876L368.642 122.764L355.814 96.9648Z" fill="#0093C0"/>
<path d="M355.712 96.8549L355.652 97.0972L401.459 108.412L401.518 108.17L355.712 96.8549Z" fill="#0093C0"/>
<path d="M401.447 108.196L368.474 122.66L368.573 122.889L401.547 108.425L401.447 108.196Z" fill="#0093C0"/>
<path d="M368.535 122.64L368.498 122.886L410.549 129.346L410.587 129.099L368.535 122.64Z" fill="#0093C0"/>
<path d="M401.606 108.247L401.378 108.347L410.463 129.292L410.691 129.193L401.606 108.247Z" fill="#0093C0"/>
<path d="M401.556 108.219L401.389 108.404L436.329 140.244L436.496 140.059L401.556 108.219Z" fill="#0093C0"/>
<path d="M318.253 63.6528L318.039 91.2832L318.287 91.2851L318.501 63.6547L318.253 63.6528Z" fill="#0093C0"/>
<path d="M318.453 63.591L318.329 63.8071L343.761 78.5383L343.885 78.3221L318.453 63.591Z" fill="#0093C0"/>
<path d="M343.749 78.3079L318.093 91.1816L318.204 91.4048L343.86 78.5311L343.749 78.3079Z" fill="#0093C0"/>
<path d="M318.17 91.1908L318.133 91.4375L355.661 97.1089L355.698 96.8622L318.17 91.1908Z" fill="#0093C0"/>
<path d="M355.627 96.8855L328.907 129.141L329.098 129.301L355.818 97.045L355.627 96.8855Z" fill="#0093C0"/>
<path d="M368.508 122.644L328.948 129.087L328.988 129.333L368.547 122.89L368.508 122.644Z" fill="#0093C0"/>
<path d="M410.531 129.096L345.392 155.384L345.484 155.616L410.624 129.327L410.531 129.096Z" fill="#0093C0"/>
<path d="M368.399 122.686L345.331 155.38L345.533 155.525L368.602 122.83L368.399 122.686Z" fill="#0093C0"/>
<path d="M328.932 129.113L273.218 151.194L273.31 151.426L329.023 129.345L328.932 129.113Z" fill="#0093C0"/>
<path d="M329.042 129.155L328.832 129.288L345.283 155.51L345.494 155.377L329.042 129.155Z" fill="#0093C0"/>
<path d="M318.129 91.1748L279.668 95.6514L279.697 95.8992L318.158 91.4226L318.129 91.1748Z" fill="#0093C0"/>
<path d="M218.969 129.098L218.875 129.329L273.189 151.385L273.282 151.154L218.969 129.098Z" fill="#0093C0"/>
<path d="M230.755 86.4685L230.709 86.7139L279.704 95.9028L279.749 95.6575L230.755 86.4685Z" fill="#0093C0"/>
<path d="M279.645 95.6449L218.893 129.121L219.012 129.339L279.765 95.8637L279.645 95.6449Z" fill="#0093C0"/>
<path d="M279.543 95.7683L273.132 151.29L273.379 151.319L279.79 95.7971L279.543 95.7683Z" fill="#0093C0"/>
<path d="M318.274 91.2762L318.035 91.3447L328.837 129.276L329.076 129.207L318.274 91.2762Z" fill="#0093C0"/>
<path d="M279.745 95.6566L279.606 95.8633L328.885 129.317L329.024 129.111L279.745 95.6566Z" fill="#0093C0"/>
<path d="M294.643 60.9867L294.447 61.1406L318.065 91.3878L318.261 91.2339L294.643 60.9867Z" fill="#0093C0"/>
<path d="M253.016 55.0291L252.896 55.2476L318.108 91.4067L318.228 91.1882L253.016 55.0291Z" fill="#0093C0"/>
<path d="M253.03 55.0871L252.823 55.2246L279.573 95.8591L279.78 95.7215L253.03 55.0871Z" fill="#0093C0"/>
<path d="M294.577 60.9228L294.55 61.1709L318.366 63.8016L318.393 63.5535L294.577 60.9228Z" fill="#0093C0"/>
<path d="M343.929 78.3485L343.72 78.4834L355.598 97.0339L355.807 96.899L343.929 78.3485Z" fill="#0093C0"/>
<path d="M263.642 22.5749L263.494 22.7749L318.28 63.7909L318.428 63.5909L263.642 22.5749Z" fill="#0093C0"/>
<path d="M319.904 173.809C320.3 172.126 319.262 170.44 317.585 170.043C315.908 169.646 314.228 170.688 313.832 172.37C313.436 174.053 314.474 175.739 316.151 176.136C317.828 176.534 319.508 175.492 319.904 173.809Z" fill="#9DA4A7"/>
<path d="M401.956 193.295C402.352 191.612 401.314 189.926 399.637 189.529C397.96 189.132 396.28 190.174 395.884 191.856C395.488 193.539 396.527 195.225 398.203 195.622C399.88 196.02 401.56 194.978 401.956 193.295Z" fill="#9DA4A7"/>
<path d="M319.059 204.852C320.277 203.629 320.277 201.647 319.059 200.425C317.84 199.202 315.865 199.202 314.647 200.425C313.429 201.647 313.429 203.629 314.647 204.852C315.865 206.074 317.84 206.074 319.059 204.852Z" fill="#9DA4A7"/>
<path d="M367.803 171.75C368.802 171.75 369.611 170.937 369.611 169.935C369.611 168.933 368.802 168.12 367.803 168.12C366.804 168.12 365.995 168.933 365.995 169.935C365.995 170.937 366.804 171.75 367.803 171.75Z" fill="#9DA4A7"/>
<path d="M380.691 221.853C381.614 221.47 382.052 220.408 381.67 219.482C381.288 218.556 380.23 218.116 379.307 218.5C378.385 218.883 377.947 219.945 378.329 220.871C378.711 221.797 379.769 222.237 380.691 221.853Z" fill="#9DA4A7"/>
<path d="M348.679 186.625C348.848 185.905 348.404 185.184 347.687 185.015C346.971 184.845 346.253 185.29 346.083 186.01C345.914 186.729 346.358 187.45 347.075 187.62C347.791 187.789 348.509 187.344 348.679 186.625Z" fill="#9DA4A7"/>
<path d="M268.884 237.002C269.28 235.319 268.242 233.633 266.565 233.236C264.888 232.838 263.208 233.88 262.812 235.563C262.416 237.245 263.454 238.931 265.131 239.329C266.808 239.726 268.488 238.684 268.884 237.002Z" fill="#9DA4A7"/>
<path d="M299.474 198.177C300.473 198.177 301.283 197.365 301.283 196.363C301.283 195.36 300.473 194.548 299.474 194.548C298.476 194.548 297.666 195.36 297.666 196.363C297.666 197.365 298.476 198.177 299.474 198.177Z" fill="#9DA4A7"/>
<path d="M314.24 267.787C314.92 267.504 315.243 266.721 314.961 266.038C314.679 265.355 313.899 265.031 313.219 265.314C312.538 265.597 312.215 266.38 312.497 267.063C312.779 267.746 313.559 268.07 314.24 267.787Z" fill="#9DA4A7"/>
<path d="M447.923 264.447C448.604 264.164 448.927 263.381 448.645 262.698C448.363 262.016 447.583 261.691 446.903 261.974C446.222 262.257 445.899 263.04 446.181 263.723C446.463 264.406 447.243 264.73 447.923 264.447Z" fill="#9DA4A7"/>
<path d="M439.584 215.191C439.98 213.508 438.942 211.822 437.265 211.425C435.589 211.027 433.909 212.069 433.513 213.752C433.117 215.434 434.155 217.12 435.832 217.518C437.508 217.915 439.189 216.873 439.584 215.191Z" fill="#9DA4A7"/>
<path d="M433.11 243.503C434.108 243.503 434.918 242.691 434.918 241.688C434.918 240.686 434.108 239.874 433.11 239.874C432.111 239.874 431.301 240.686 431.301 241.688C431.301 242.691 432.111 243.503 433.11 243.503Z" fill="#9DA4A7"/>
<path d="M362.154 321.201C362.89 321.201 363.487 320.602 363.487 319.862C363.487 319.123 362.89 318.524 362.154 318.524C361.417 318.524 360.82 319.123 360.82 319.862C360.82 320.602 361.417 321.201 362.154 321.201Z" fill="#9DA4A7"/>
<path d="M472.96 238.344C474.178 237.121 474.178 235.139 472.96 233.917C471.742 232.694 469.767 232.694 468.549 233.917C467.33 235.139 467.33 237.121 468.549 238.344C469.767 239.566 471.742 239.566 472.96 238.344Z" fill="#9DA4A7"/>
<path d="M504.167 255.41C504.873 254.701 504.873 253.552 504.167 252.843C503.461 252.135 502.316 252.135 501.61 252.843C500.904 253.552 500.904 254.701 501.61 255.41C502.316 256.118 503.461 256.118 504.167 255.41Z" fill="#9DA4A7"/>
<path d="M519.841 323.581C520.578 323.581 521.175 322.981 521.175 322.242C521.175 321.503 520.578 320.904 519.841 320.904C519.105 320.904 518.508 321.503 518.508 322.242C518.508 322.981 519.105 323.581 519.841 323.581Z" fill="#9DA4A7"/>
<path d="M473.576 277.131C473.972 275.449 472.933 273.763 471.257 273.366C469.58 272.968 467.9 274.01 467.504 275.693C467.108 277.375 468.146 279.061 469.823 279.459C471.5 279.856 473.18 278.814 473.576 277.131Z" fill="#9DA4A7"/>
<path d="M419.583 289.543C419.743 288.554 419.073 287.622 418.087 287.461C417.101 287.301 416.172 287.972 416.012 288.962C415.852 289.951 416.522 290.883 417.508 291.044C418.494 291.204 419.423 290.532 419.583 289.543Z" fill="#9DA4A7"/>
<path d="M474.905 344.703C475.641 344.703 476.239 344.104 476.239 343.365C476.239 342.626 475.641 342.026 474.905 342.026C474.168 342.026 473.571 342.626 473.571 343.365C473.571 344.104 474.168 344.703 474.905 344.703Z" fill="#9DA4A7"/>
<path d="M370.007 285.024C371.225 283.801 371.225 281.819 370.007 280.596C368.789 279.374 366.814 279.374 365.596 280.596C364.378 281.819 364.378 283.801 365.596 285.024C366.814 286.246 368.789 286.246 370.007 285.024Z" fill="#9DA4A7"/>
<path d="M274.855 327.78C275.853 327.78 276.663 326.967 276.663 325.965C276.663 324.962 275.853 324.15 274.855 324.15C273.856 324.15 273.046 324.962 273.046 325.965C273.046 326.967 273.856 327.78 274.855 327.78Z" fill="#9DA4A7"/>
<path d="M375.965 346.221C376.702 346.221 377.299 345.622 377.299 344.883C377.299 344.144 376.702 343.544 375.965 343.544C375.229 343.544 374.632 344.144 374.632 344.883C374.632 345.622 375.229 346.221 375.965 346.221Z" fill="#9DA4A7"/>
<path d="M332.789 346.329C333.184 344.646 332.146 342.96 330.47 342.562C328.793 342.165 327.113 343.207 326.717 344.89C326.321 346.572 327.36 348.259 329.036 348.656C330.713 349.053 332.393 348.011 332.789 346.329Z" fill="#9DA4A7"/>
<path d="M520.134 286.922C521.133 286.922 521.943 286.109 521.943 285.107C521.943 284.105 521.133 283.292 520.134 283.292C519.136 283.292 518.326 284.105 518.326 285.107C518.326 286.109 519.136 286.922 520.134 286.922Z" fill="#9DA4A7"/>
<path d="M426.418 365.392C427.155 365.392 427.752 364.792 427.752 364.053C427.752 363.314 427.155 362.715 426.418 362.715C425.682 362.715 425.084 363.314 425.084 364.053C425.084 364.792 425.682 365.392 426.418 365.392Z" fill="#9DA4A7"/>
<path d="M431.724 322C433.316 321.339 434.072 319.507 433.412 317.91C432.753 316.312 430.928 315.554 429.337 316.215C427.745 316.877 426.989 318.709 427.648 320.306C428.308 321.903 430.132 322.662 431.724 322Z" fill="#9DA4A7"/>
<path d="M485.053 305.433C486.052 305.433 486.862 304.621 486.862 303.619C486.862 302.616 486.052 301.804 485.053 301.804C484.055 301.804 483.245 302.616 483.245 303.619C483.245 304.621 484.055 305.433 485.053 305.433Z" fill="#9DA4A7"/>
<path d="M414.753 337.874C415.489 337.874 416.086 337.275 416.086 336.535C416.086 335.796 415.489 335.197 414.753 335.197C414.016 335.197 413.419 335.796 413.419 336.535C413.419 337.275 414.016 337.874 414.753 337.874Z" fill="#9DA4A7"/>
<path d="M285.895 210.246C287.113 209.023 287.113 207.041 285.895 205.819C284.677 204.596 282.702 204.596 281.484 205.819C280.265 207.041 280.265 209.023 281.484 210.246C282.702 211.468 284.677 211.468 285.895 210.246Z" fill="#9DA4A7"/>
<path d="M340.545 241.438C341.543 241.438 342.353 240.626 342.353 239.623C342.353 238.621 341.543 237.809 340.545 237.809C339.546 237.809 338.736 238.621 338.736 239.623C338.736 240.626 339.546 241.438 340.545 241.438Z" fill="#9DA4A7"/>
<path d="M238.768 302.603C239.448 302.32 239.771 301.537 239.49 300.854C239.208 300.171 238.428 299.847 237.747 300.13C237.067 300.413 236.744 301.196 237.025 301.879C237.307 302.562 238.087 302.886 238.768 302.603Z" fill="#9DA4A7"/>
<path d="M199.786 291.62C200.179 289.937 199.137 288.253 197.46 287.859C195.783 287.465 194.104 288.51 193.712 290.193C193.319 291.877 194.361 293.561 196.038 293.955C197.716 294.349 199.394 293.304 199.786 291.62Z" fill="#9DA4A7"/>
<path d="M297.815 233.452C298.044 232.477 297.442 231.499 296.47 231.269C295.498 231.039 294.524 231.643 294.295 232.618C294.065 233.594 294.667 234.571 295.639 234.801C296.611 235.032 297.585 234.428 297.815 233.452Z" fill="#9DA4A7"/>
<path d="M385.751 263.851C386.488 263.851 387.085 263.252 387.085 262.513C387.085 261.774 386.488 261.174 385.751 261.174C385.015 261.174 384.417 261.774 384.417 262.513C384.417 263.252 385.015 263.851 385.751 263.851Z" fill="#9DA4A7"/>
<path d="M217.129 270.938C217.525 269.255 216.487 267.569 214.81 267.172C213.133 266.774 211.453 267.816 211.057 269.499C210.661 271.182 211.7 272.868 213.376 273.265C215.053 273.663 216.733 272.621 217.129 270.938Z" fill="#9DA4A7"/>
<path d="M259.508 273.789C260.507 273.789 261.316 272.977 261.316 271.974C261.316 270.972 260.507 270.16 259.508 270.16C258.509 270.16 257.7 270.972 257.7 271.974C257.7 272.977 258.509 273.789 259.508 273.789Z" fill="#9DA4A7"/>
<path d="M259.259 357.179C259.996 357.179 260.593 356.58 260.593 355.84C260.593 355.101 259.996 354.502 259.259 354.502C258.523 354.502 257.926 355.101 257.926 355.84C257.926 356.58 258.523 357.179 259.259 357.179Z" fill="#9DA4A7"/>
<path d="M237.12 336.443C238.338 335.221 238.338 333.238 237.12 332.016C235.902 330.793 233.927 330.793 232.709 332.016C231.49 333.238 231.49 335.221 232.709 336.443C233.927 337.666 235.902 337.666 237.12 336.443Z" fill="#9DA4A7"/>
<path d="M294.313 302.117C294.709 300.434 293.671 298.748 291.995 298.351C290.318 297.954 288.638 298.996 288.242 300.678C287.846 302.361 288.885 304.047 290.561 304.445C292.238 304.842 293.918 303.8 294.313 302.117Z" fill="#9DA4A7"/>
<path d="M199.18 326.146C200.179 326.146 200.989 325.334 200.989 324.331C200.989 323.329 200.179 322.517 199.18 322.517C198.182 322.517 197.372 323.329 197.372 324.331C197.372 325.334 198.182 326.146 199.18 326.146Z" fill="#9DA4A7"/>
<path d="M303.675 327.937C304.674 327.937 305.483 327.125 305.483 326.122C305.483 325.12 304.674 324.308 303.675 324.308C302.676 324.308 301.867 325.12 301.867 326.122C301.867 327.125 302.676 327.937 303.675 327.937Z" fill="#9DA4A7"/>
<path d="M320.857 303.619C321.594 303.619 322.191 303.02 322.191 302.281C322.191 301.542 321.594 300.942 320.857 300.942C320.121 300.942 319.523 301.542 319.523 302.281C319.523 303.02 320.121 303.619 320.857 303.619Z" fill="#9DA4A7"/>
<path d="M295.246 346.901C295.983 346.901 296.58 346.302 296.58 345.563C296.58 344.824 295.983 344.225 295.246 344.225C294.51 344.225 293.913 344.824 293.913 345.563C293.913 346.302 294.51 346.901 295.246 346.901Z" fill="#9DA4A7"/>
<path d="M316.854 172.997L316.782 173.164L347.306 186.395L347.378 186.229L316.854 172.997Z" fill="#C2CACF"/>
<path d="M367.758 169.829L347.322 186.21L347.435 186.352L367.871 169.971L367.758 169.829Z" fill="#C2CACF"/>
<path d="M347.309 186.221L316.799 202.565L316.884 202.725L347.394 186.381L347.309 186.221Z" fill="#C2CACF"/>
<path d="M316.778 173.024L299.412 196.334L299.557 196.443L316.922 173.133L316.778 173.024Z" fill="#C2CACF"/>
<path d="M299.484 196.259L299.422 196.43L316.802 202.698L316.863 202.527L299.484 196.259Z" fill="#C2CACF"/>
<path d="M316.923 173.071H316.742V202.653H316.923V173.071Z" fill="#C2CACF"/>
<path d="M367.774 169.834L316.83 172.986L316.841 173.167L367.785 170.015L367.774 169.834Z" fill="#C2CACF"/>
<path d="M347.371 186.232L347.35 186.412L398.875 192.642L398.897 192.461L347.371 186.232Z" fill="#C2CACF"/>
<path d="M367.843 169.886L367.737 170.033L398.827 192.621L398.933 192.474L367.843 169.886Z" fill="#C2CACF"/>
<path d="M347.434 186.258L347.304 186.384L379.931 220.296L380.061 220.17L347.434 186.258Z" fill="#C2CACF"/>
<path d="M347.285 186.279L340.479 239.63L340.658 239.653L347.465 186.302L347.285 186.279Z" fill="#C2CACF"/>
<path d="M316.756 202.624L295.964 232.984L296.113 233.087L316.905 202.727L316.756 202.624Z" fill="#C2CACF"/>
<path d="M299.414 196.32L283.652 207.97L283.759 208.116L299.521 196.466L299.414 196.32Z" fill="#C2CACF"/>
<path d="M316.78 172.987L283.639 207.945L283.77 208.07L316.911 173.112L316.78 172.987Z" fill="#C2CACF"/>
<path d="M283.787 207.994L283.625 208.075L295.968 233.052L296.13 232.972L283.787 207.994Z" fill="#C2CACF"/>
<path d="M316.91 202.569L316.758 202.667L340.469 239.66L340.622 239.562L316.91 202.569Z" fill="#C2CACF"/>
<path d="M379.939 220.114L340.513 239.534L340.592 239.697L380.019 220.276L379.939 220.114Z" fill="#C2CACF"/>
<path d="M398.784 192.461L379.872 220.127L380.021 220.23L398.933 192.564L398.784 192.461Z" fill="#C2CACF"/>
<path d="M379.993 220.105L379.926 220.273L433.046 241.779L433.114 241.61L379.993 220.105Z" fill="#C2CACF"/>
<path d="M436.513 214.289L379.959 220.086L379.978 220.266L436.532 214.47L436.513 214.289Z" fill="#C2CACF"/>
<path d="M265.758 236.24L259.432 271.977L259.61 272.009L265.936 236.271L265.758 236.24Z" fill="#C2CACF"/>
<path d="M214.086 270.1L214.079 270.282L259.5 272.087L259.507 271.906L214.086 270.1Z" fill="#C2CACF"/>
<path d="M296.078 232.919L296.052 233.098L340.548 239.721L340.575 239.541L296.078 232.919Z" fill="#C2CACF"/>
<path d="M340.501 239.562L313.665 266.495L313.793 266.623L340.629 239.691L340.501 239.562Z" fill="#C2CACF"/>
<path d="M296.144 232.962L295.984 233.046L313.66 266.6L313.82 266.516L296.144 232.962Z" fill="#C2CACF"/>
<path d="M295.994 232.921L259.453 271.896L259.584 272.02L296.126 233.045L295.994 232.921Z" fill="#C2CACF"/>
<path d="M313.688 266.429L259.484 271.872L259.502 272.053L313.706 266.61L313.688 266.429Z" fill="#C2CACF"/>
<path d="M214.157 270.15L214.014 270.261L238.158 301.45L238.301 301.339L214.157 270.15Z" fill="#C2CACF"/>
<path d="M259.456 271.949L238.173 301.324L238.319 301.43L259.602 272.056L259.456 271.949Z" fill="#C2CACF"/>
<path d="M313.788 266.538L313.611 266.574L320.727 302.298L320.905 302.263L313.788 266.538Z" fill="#C2CACF"/>
<path d="M367.794 282.707L320.853 302.178L320.922 302.346L367.863 282.874L367.794 282.707Z" fill="#C2CACF"/>
<path d="M385.665 262.455L367.717 282.744L367.852 282.865L385.801 262.576L385.665 262.455Z" fill="#C2CACF"/>
<path d="M313.748 266.448L313.696 266.622L367.769 282.873L367.821 282.699L313.748 266.448Z" fill="#C2CACF"/>
<path d="M340.608 239.553L340.526 239.715L385.731 262.607L385.813 262.445L340.608 239.553Z" fill="#C2CACF"/>
<path d="M380.092 220.181L379.913 220.206L385.673 262.53L385.852 262.506L380.092 220.181Z" fill="#C2CACF"/>
<path d="M259.581 271.902L259.501 272.065L320.849 302.376L320.929 302.213L259.581 271.902Z" fill="#C2CACF"/>
<path d="M196.801 290.825L196.757 291.001L238.219 301.439L238.263 301.263L196.801 290.825Z" fill="#C2CACF"/>
<path d="M214.035 270.124L196.712 290.865L196.851 290.982L214.174 270.241L214.035 270.124Z" fill="#C2CACF"/>
<path d="M238.284 301.31L238.183 301.461L274.812 326.07L274.913 325.919L238.284 301.31Z" fill="#C2CACF"/>
<path d="M238.127 301.354L234.847 334.218L235.027 334.236L238.307 301.372L238.127 301.354Z" fill="#C2CACF"/>
<path d="M199.218 324.244L199.17 324.419L234.928 334.318L234.976 334.143L199.218 324.244Z" fill="#C2CACF"/>
<path d="M196.848 290.916L196.668 290.929L199.075 324.326L199.255 324.313L196.848 290.916Z" fill="#C2CACF"/>
<path d="M274.81 325.865L234.898 334.14L234.935 334.317L274.847 326.043L274.81 325.865Z" fill="#C2CACF"/>
<path d="M274.788 325.912L259.179 355.762L259.339 355.846L274.948 325.996L274.788 325.912Z" fill="#C2CACF"/>
<path d="M291.259 301.29L291.253 301.471L320.85 302.392L320.856 302.211L291.259 301.29Z" fill="#C2CACF"/>
<path d="M291.32 301.291L291.158 301.372L303.566 326.138L303.728 326.057L291.32 301.291Z" fill="#C2CACF"/>
<path d="M291.215 301.315L274.799 325.913L274.95 326.014L291.365 301.416L291.215 301.315Z" fill="#C2CACF"/>
<path d="M274.849 325.875L274.848 326.056L303.668 326.221L303.669 326.039L274.849 325.875Z" fill="#C2CACF"/>
<path d="M274.874 325.898L274.749 326.029L295.147 345.616L295.271 345.485L274.874 325.898Z" fill="#C2CACF"/>
<path d="M303.58 326.05L295.167 345.484L295.333 345.556L303.746 326.122L303.58 326.05Z" fill="#C2CACF"/>
<path d="M320.783 302.23L303.606 326.074L303.753 326.18L320.929 302.336L320.783 302.23Z" fill="#C2CACF"/>
<path d="M291.259 301.29L291.253 301.471L320.85 302.392L320.856 302.211L291.259 301.29Z" fill="#C2CACF"/>
<path d="M259.595 271.936L259.473 272.069L291.226 301.461L291.349 301.328L259.595 271.936Z" fill="#C2CACF"/>
<path d="M313.638 266.541L291.192 301.358L291.344 301.457L313.79 266.64L313.638 266.541Z" fill="#C2CACF"/>
<path d="M303.701 326.05L303.593 326.196L329.673 345.628L329.78 345.482L303.701 326.05Z" fill="#C2CACF"/>
<path d="M320.845 302.224L320.774 302.391L362.076 319.979L362.147 319.812L320.845 302.224Z" fill="#C2CACF"/>
<path d="M362.132 319.746L303.651 326.033L303.67 326.213L362.151 319.927L362.132 319.746Z" fill="#C2CACF"/>
<path d="M362.06 319.786L329.654 345.474L329.766 345.616L362.172 319.928L362.06 319.786Z" fill="#C2CACF"/>
<path d="M367.801 282.708L367.778 282.888L417.776 289.322L417.799 289.142L367.801 282.708Z" fill="#C2CACF"/>
<path d="M385.742 262.465L385.74 262.647L447.376 263.341L447.378 263.159L385.742 262.465Z" fill="#C2CACF"/>
<path d="M385.804 262.472L385.688 262.612L417.725 289.336L417.84 289.197L385.804 262.472Z" fill="#C2CACF"/>
<path d="M447.343 263.148L417.729 289.16L417.848 289.296L447.462 263.285L447.343 263.148Z" fill="#C2CACF"/>
<path d="M447.4 263.131L447.311 263.289L470.446 276.427L470.535 276.269L447.4 263.131Z" fill="#C2CACF"/>
<path d="M470.494 276.245L417.763 289.133L417.805 289.309L470.537 276.422L470.494 276.245Z" fill="#C2CACF"/>
<path d="M417.85 289.252L417.684 289.323L430.39 319.176L430.556 319.105L417.85 289.252Z" fill="#C2CACF"/>
<path d="M430.565 319.051L430.478 319.21L474.885 343.482L474.972 343.323L430.565 319.051Z" fill="#C2CACF"/>
<path d="M417.75 289.211L362.104 319.808L362.191 319.967L417.837 289.37L417.75 289.211Z" fill="#C2CACF"/>
<path d="M367.697 282.819L362.074 319.89L362.253 319.917L367.875 282.846L367.697 282.819Z" fill="#C2CACF"/>
<path d="M430.483 318.991L362.135 319.761L362.137 319.943L430.485 319.172L430.483 318.991Z" fill="#C2CACF"/>
<path d="M430.41 319.053L414.656 336.471L414.79 336.593L430.544 319.175L430.41 319.053Z" fill="#C2CACF"/>
<path d="M362.189 319.826L362.135 320L414.73 336.66L414.784 336.487L362.189 319.826Z" fill="#C2CACF"/>
<path d="M362.235 319.884L362.077 319.972L375.876 344.977L376.034 344.889L362.235 319.884Z" fill="#C2CACF"/>
<path d="M414.7 336.46L375.906 344.777L375.944 344.954L414.738 336.638L414.7 336.46Z" fill="#C2CACF"/>
<path d="M414.826 336.492L414.659 336.563L426.335 364.07L426.501 363.999L414.826 336.492Z" fill="#C2CACF"/>
<path d="M474.852 343.276L426.376 363.938L426.447 364.105L474.922 343.443L474.852 343.276Z" fill="#C2CACF"/>
<path d="M414.758 336.492L414.737 336.672L474.884 343.513L474.904 343.333L414.758 336.492Z" fill="#C2CACF"/>
<path d="M519.809 322.118L474.846 343.225L474.923 343.389L519.886 322.282L519.809 322.118Z" fill="#C2CACF"/>
<path d="M485.048 303.546L484.963 303.706L519.765 322.335L519.85 322.175L485.048 303.546Z" fill="#C2CACF"/>
<path d="M484.947 303.615L474.802 343.368L474.977 343.413L485.122 303.66L484.947 303.615Z" fill="#C2CACF"/>
<path d="M485.06 303.529L430.494 318.97L430.543 319.145L485.109 303.704L485.06 303.529Z" fill="#C2CACF"/>
<path d="M520.135 285.05L485.035 303.556L485.119 303.716L520.22 285.21L520.135 285.05Z" fill="#C2CACF"/>
<path d="M470.574 276.252L470.543 276.431L520.167 285.194L520.198 285.016L470.574 276.252Z" fill="#C2CACF"/>
<path d="M417.845 289.174L417.807 289.351L485.064 303.719L485.101 303.541L417.845 289.174Z" fill="#C2CACF"/>
<path d="M470.555 276.349L470.396 276.434L484.911 303.679L485.071 303.593L470.555 276.349Z" fill="#C2CACF"/>
<path d="M502.877 254.064L470.499 276.314L470.601 276.464L502.979 254.214L502.877 254.064Z" fill="#C2CACF"/>
<path d="M470.766 235.807L470.677 235.965L502.818 254.225L502.907 254.067L470.766 235.807Z" fill="#C2CACF"/>
<path d="M502.893 253.992L447.396 263.135L447.426 263.314L502.923 254.171L502.893 253.992Z" fill="#C2CACF"/>
<path d="M470.689 235.771L447.332 263.156L447.469 263.274L470.827 235.889L470.689 235.771Z" fill="#C2CACF"/>
<path d="M436.452 214.439L433 241.714L433.179 241.737L436.631 214.462L436.452 214.439Z" fill="#C2CACF"/>
<path d="M470.75 235.722L433.085 241.551L433.113 241.73L470.778 235.901L470.75 235.722Z" fill="#C2CACF"/>
<path d="M433.181 241.683L433.031 241.784L447.322 263.303L447.473 263.202L433.181 241.683Z" fill="#C2CACF"/>
<path d="M433.078 241.618L385.709 262.396L385.781 262.563L433.15 241.784L433.078 241.618Z" fill="#C2CACF"/>
<path d="M295.244 345.477L259.238 355.751L259.287 355.926L295.294 345.651L295.244 345.477Z" fill="#C2CACF"/>
<path d="M199.223 324.255L199.14 324.416L259.222 355.921L259.306 355.76L199.223 324.255Z" fill="#C2CACF"/>
<path d="M375.963 344.795L375.899 344.964L426.365 364.123L426.429 363.953L375.963 344.795Z" fill="#C2CACF"/>
</svg>
